<?xml version="1.0" encoding="UTF-8" standalone="no"?>
<svg
   xmlns:dc="http://purl.org/dc/elements/1.1/"
   xmlns:cc="http://creativecommons.org/ns#"
   xmlns:rdf="http://www.w3.org/1999/02/22-rdf-syntax-ns#"
   xmlns:svg="http://www.w3.org/2000/svg"
   xmlns="http://www.w3.org/2000/svg"
   xmlns:xlink="http://www.w3.org/1999/xlink"
   id="svg2985"
   version="1.1"
   width="485.33334"
   height="638.93335"
   viewBox="0 0 455 599">
  <metadata
     id="metadata2991">
    <rdf:RDF>
      <cc:Work
         rdf:about="">
        <dc:format>image/svg+xml</dc:format>
        <dc:type
           rdf:resource="http://purl.org/dc/dcmitype/StillImage" />
        <dc:title></dc:title>
      </cc:Work>
    </rdf:RDF>
  </metadata>
  <defs
     id="defs2989">
    <linearGradient
       id="linearGradient5136">
      <stop
         id="stop5132"
         offset="0"
         style="stop-color:#e6e6e6;stop-opacity:0.93" />
      <stop
         id="stop5134"
         offset="1"
         style="stop-color:#ffffff;stop-opacity:1" />
    </linearGradient>
    <linearGradient
       id="linearGradient848">
      <stop
         id="stop844"
         offset="0"
         style="stop-color:#003e77;stop-opacity:1" />
      <stop
         id="stop846"
         offset="1"
         style="stop-color:#6b88ba;stop-opacity:1" />
    </linearGradient>
    <linearGradient
       gradientTransform="matrix(1.0666667,0,0,1.0666667,-4.6150123,-4.2670381)"
       gradientUnits="userSpaceOnUse"
       y2="28.824965"
       x2="390.9429"
       y1="295.72061"
       x1="244.43484"
       id="linearGradient850"
       xlink:href="#linearGradient848" />
    <linearGradient
       gradientUnits="userSpaceOnUse"
       y2="5.9306931"
       x2="28.467327"
       y1="66.423767"
       x1="252.64752"
       id="linearGradient5138"
       xlink:href="#linearGradient5136" />
  </defs>
  <path
     style="fill:#00284f;fill-opacity:1;stroke:none;stroke-width:1.32582521;stroke-linecap:butt;stroke-linejoin:miter;stroke-opacity:1"
     d="M 7.1385062,24.350253 19.036017,6.5039873 28.280669,13.85684 C 25.885214,174.2298 23.481778,417.35978 23.722773,593.06931 L 9.4891089,576.46337 7.1385062,24.350253"
     id="path812" />
  <path
     style="fill:#004a8f;fill-opacity:1;stroke:none;stroke-width:1.32582521;stroke-linecap:butt;stroke-linejoin:miter;stroke-opacity:1"
     d="M 18.088614,6.2272278 442.56126,68.867992 440.5364,70.748954 29.95,13.640594 c 0,0 -3.742152,-2.491703 -5.337624,-3.558416 C 22.652292,8.7716905 18.088614,6.2272278 18.088614,6.2272278 v 0"
     id="path814" />
  <path
     id="path842"
     transform="scale(0.93749998)"
     d="M 28.388672,14.091797 28.000494,627.9704 472.37109,557.48828 472.15474,75.441406 Z m 310.378908,456.263673 -0.0938,13.9375 12.18945,-1.32422 -0.0781,11.49609 -12.18946,1.41602 -0.1875,27.94531 c -0.009,1.28519 0.0349,2.31004 0.13086,3.07422 0.0959,0.76397 0.2271,1.34652 0.39258,1.75 0.19908,0.39838 0.43323,0.65555 0.70117,0.77149 0.30163,0.072 0.6368,0.0819 1.00586,0.0273 0.73722,-0.10875 1.60718,-0.29473 2.60938,-0.5586 1.00023,-0.30198 5.26034,-2.87048 6.45507,-3.27734 l 4.03516,10.79102 -7.27344,2.53125 c -1.49452,0.66229 -2.87779,1.19143 -4.14648,1.58789 -1.23881,0.39219 -2.39687,0.67495 -3.47266,0.84765 -2.80236,0.44986 -5.05778,0.42084 -6.75781,-0.0898 -1.67249,-0.47875 -2.9524,-1.39333 -3.83789,-2.74805 -0.88704,-1.39689 -1.46252,-3.21933 -1.72461,-5.46484 -0.22765,-2.25225 -0.3319,-4.89822 -0.3125,-7.9375 l 0.17773,-27.9082 -7.54492,0.61914 0.0742,-11.81641 7.54688,-0.54883 0.0898,-14.125 z m 85.98242,5.16211 c 7.98474,0.34987 12.18686,6.3953 12.73242,15.42383 l -9.85351,1.63476 v -2 c -0.65011,-3.18938 -2.69456,-4.51244 -6.1543,-3.95898 -0.89101,0.14263 -1.71305,0.36661 -2.46484,0.66992 -0.75316,0.30382 -1.42079,0.68596 -2.00391,1.14648 -0.55484,0.45644 -0.99551,0.98623 -1.32031,1.58985 -0.32504,0.60406 -0.49009,1.25594 -0.4961,1.95508 -0.005,0.55195 0.0629,1.01804 0.20508,1.39843 0.17153,0.33862 0.56082,0.63932 1.16797,0.9043 0.63526,0.25969 1.55991,0.50801 2.76953,0.74219 1.20645,0.19695 2.83833,0.44617 4.89063,0.75 2.49493,0.33302 4.63641,0.75891 6.42968,1.27734 1.81337,0.51123 3.30947,1.27346 4.49414,2.2832 1.18122,1.00677 2.05347,2.33407 2.61719,3.98243 0.56288,1.64587 0.83253,3.77211 0.8086,6.38086 -0.0223,2.42977 -0.42954,4.75539 -1.22071,6.98242 -0.79255,2.23099 -1.90158,4.26243 -3.33203,6.0957 -1.43529,1.83945 -3.18073,3.42696 -5.24023,4.75977 -2.041,1.29713 -4.34437,2.2186 -6.91407,2.76367 -10.90859,2.31391 -17.04502,-4.39468 -18.19921,-16.20117 l 10.63476,-2.03125 c 0.51487,4.45201 3.05186,8.22077 7.57422,7.32031 2.22879,-0.44379 3.9112,-1.32102 5.05469,-2.63281 1.16869,-1.31385 1.75956,-2.74793 1.77343,-4.30274 0.006,-0.72314 -0.11558,-1.29491 -0.36523,-1.71679 -0.22128,-0.46367 -0.68302,-0.82691 -1.38672,-1.0918 -0.70457,-0.30163 -1.68079,-0.5544 -2.92969,-0.75586 -1.25268,-0.20205 -2.88171,-0.4445 -4.89062,-0.72852 -2.4818,-0.30993 -4.6278,-0.68491 -6.43359,-1.12695 -1.81332,-0.48093 -3.30747,-1.191 -4.48047,-2.12695 -1.17606,-0.97574 -2.0558,-2.28433 -2.63672,-3.92774 -0.55193,-1.65093 -0.81724,-3.81857 -0.79492,-6.5 0.0192,-2.30931 0.42533,-4.51288 1.21679,-6.60937 0.7904,-2.13006 1.90282,-4.02851 3.33594,-5.69336 1.4288,-1.69648 3.14329,-3.09885 5.14063,-4.20703 1.98838,-1.13984 4.19535,-1.88634 6.61718,-2.24219 1.29546,-0.19035 2.51362,-0.25701 3.6543,-0.20703 z m -234.90234,1.20703 c 3.95597,0.0803 7.01382,2.98092 7.0039,6.78516 -0.0107,4.05697 -3.5063,7.65658 -7.84179,8.04296 -4.37216,0.38971 -7.93675,-2.63084 -7.92774,-6.75 0.01,-4.12008 3.58914,-7.72747 7.96289,-8.05468 0.27107,-0.0203 0.539,-0.0288 0.80274,-0.0234 z m 190.33203,0.87891 c 2.06512,0.0186 3.95348,0.42153 5.66601,1.20507 2.29705,1.03537 4.23603,2.67102 5.82227,4.90625 1.57942,2.22563 2.78375,5.03541 3.61914,8.42578 0.83333,3.38216 1.23274,7.28411 1.20117,11.7129 l 0.28711,5.80078 -27.35547,4.14062 c 0.48814,4.31039 1.25296,5.85115 2.92188,7.78516 1.69019,1.8822 3.73181,2.61824 6.12109,2.2168 3.85594,-1.02707 7.36238,-1.81768 12.9043,-6.26368 l 5.44726,9.33789 c -4.84515,3.69866 -11.58183,8.40806 -17.08593,8.88282 -2.95305,0.53978 -7.00989,-0.0673 -9.48243,-0.9336 -2.4596,-0.87699 -4.58618,-2.40359 -6.36914,-4.58789 -1.79108,-2.23373 -3.17699,-5.0981 -4.15234,-8.58789 -0.978,-3.49924 -1.45252,-7.57502 -1.42383,-12.22461 0.0283,-4.57187 0.54097,-8.74026 1.53516,-12.49219 0.9922,-3.78282 2.37386,-7.05278 4.14062,-9.8125 1.75917,-2.74795 3.83955,-4.9181 6.23438,-6.50976 2.38077,-1.62088 4.99564,-2.58094 7.84375,-2.89063 0.72776,-0.0791 1.4366,-0.11772 2.125,-0.11132 z M 308,487.64844 l -0.31836,55.37695 -11.79102,1.95703 0.0176,-3.28711 c -3.45543,3.6614 -7.30831,5.85652 -11.57031,6.57031 -11.96458,2.00383 -18.03728,-4.33902 -17.96875,-19.07812 l 0.17383,-37.3457 12.83203,-1.29688 -0.18164,36.33203 c -0.0177,3.55356 0.48189,6.01292 1.49414,7.375 1.00982,1.35882 2.6486,1.86299 4.91211,1.51563 3.73519,-0.57324 7.19612,-3.3623 10.38672,-8.34375 l 0.20898,-38.58203 z m 70.7207,3.01172 c -0.24298,0.004 -0.49001,0.0216 -0.74218,0.0527 -1.99959,0.24702 -3.7601,1.31306 -5.27735,3.20508 -1.52296,1.89913 -2.62681,5.5537 -3.30859,9.0625 l 16.81445,-2.29492 c -0.60981,-3.26501 -1.62759,-6.59583 -3.05469,-8.0918 -1.25348,-1.31397 -2.73069,-1.95983 -4.43164,-1.93359 z m -140.1582,3.26757 c 11.11502,-0.25318 16.53451,6.44605 16.47656,20.07032 l -0.15625,36.55859 -13.14453,2.17578 0.14258,-36.67773 c 0.014,-3.5951 -0.51811,-6.09565 -1.59961,-7.50586 -1.04661,-1.41805 -2.81774,-1.98677 -5.31836,-1.70313 -3.66221,0.41538 -7.51526,3.23289 -11.56641,8.48438 l -0.13671,40.46289 -13.93165,2.30664 0.17774,-59.92383 13.95312,-1.4082 -0.0117,3.4668 c 3.97003,-3.66076 8.24537,-5.70971 12.8164,-6.16407 0.7917,-0.0787 1.55783,-0.1257 2.29883,-0.14258 z m -41.82617,5.6875 -0.15235,58.58399 -14.82031,2.35742 0.13086,-59.50195 z m -43.85156,1.67579 c 9.64923,0.1941 14.3709,7.30958 14.35156,21.3164 l -0.0547,38.875 -13.28516,2.56641 0.0391,-39.0625 c 0.003,-3.87247 -0.41067,-6.54902 -1.24414,-8.0293 -0.83523,-1.52659 -2.24478,-2.15823 -4.23633,-1.89453 -3.39246,0.44917 -6.9895,3.43708 -10.79688,9 l -0.0234,43.13086 -14.04493,2.71289 0.004,-40.50781 c 4.6e-4,-4.01587 -0.46719,-6.7853 -1.40625,-8.31055 -0.90028,-1.57901 -2.41897,-2.22718 -4.5625,-1.94336 -3.61056,0.47806 -7.46252,3.59523 -11.55859,9.38867 l 0.0195,44.75782 -15.205081,2.9375 -0.05664,-66.33985 15.234371,-1.79492 0.002,3.76172 c 2.07514,-2.11842 4.1828,-3.71099 6.32226,-4.7793 2.17063,-1.11306 4.43458,-1.80298 6.78907,-2.07617 3.81374,-0.44253 6.98664,-0.0982 9.53124,1.02539 2.56914,1.11194 4.58474,2.98876 6.05469,5.62891 1.58543,-2.04749 3.02721,-3.69816 4.32617,-4.95313 1.33417,-1.25584 2.58588,-2.23514 3.75586,-2.9414 1.16677,-0.74793 2.31026,-1.2734 3.43164,-1.57813 1.11839,-0.34733 2.27227,-0.59058 3.46094,-0.72852 1.10388,-0.12808 2.15415,-0.18218 3.15235,-0.1621 z"
     style="fill:url(#linearGradient850);fill-opacity:1;stroke:none;stroke-width:1.41421354;stroke-linecap:butt;stroke-linejoin:miter;stroke-opacity:1" />
  <path
     style="stroke-linejoin:miter;stroke-opacity:1;stroke:none;stroke-linecap:butt;stroke-width:1.32582521472;fill:#ffffff"
     d="M119.8 74.133663C119.8 74.133663 226.84901 85.99505 226.84901 85.99505C226.84901 85.99505 237.22772 101.11832 237.22772 101.11832C237.22772 101.11832 212.91188 128.69604 212.91188 128.69604C212.91188 128.69604 135.51633 122.76535 135.51633 122.76535C135.51633 122.76535 106.1594 87.477723 106.1594 87.477723C106.1594 87.477723 119.8 74.133663 119.8 74.133663"
     id="path816" />
  <path
     style="stroke-linejoin:miter;stroke-opacity:1;stroke:none;stroke-linecap:butt;stroke-width:1.32582521472;fill:#ffffff"
     d="M219.74639 138.11971C219.74639 138.11971 244.48882 110.02236 244.48882 110.02236C244.48882 110.02236 255.39227 123.44198 255.39227 123.44198C255.39227 123.44198 255.81164 229.96027 255.81164 229.96027C255.81164 229.96027 244.90818 242.96054 244.90818 242.96054C244.90818 242.96054 218.90766 211.50828 218.90766 211.50828C218.90766 211.50828 219.74639 138.11971 219.74639 138.11971"
     id="path818" />
  <path
     style="stroke-linejoin:miter;stroke-opacity:1;stroke:none;stroke-linecap:butt;stroke-width:1.32582521472;fill:#ffffff"
     d="M127.90581 224.50855C127.90581 224.50855 218.4883 228.70218 218.4883 228.70218C218.4883 228.70218 236.94029 250.50908 236.94029 250.50908C236.94029 250.50908 218.90766 272.31597 218.90766 272.31597C218.90766 272.31597 127.48645 271.05788 127.48645 271.05788C127.48645 271.05788 106.51829 247.15417 106.51829 247.15417C106.51829 247.15417 127.90581 224.50855 127.90581 224.50855"
     id="path820" />
  <path
     style="stroke-linejoin:miter;stroke-opacity:1;stroke:none;stroke-linecap:butt;stroke-width:1.32582521472;fill:#ffffff"
     d="M283.07024 114.63536C283.07024 114.63536 306.97396 145.66824 306.97396 145.66824C306.97396 145.66824 307.39332 216.12128 307.39332 216.12128C307.39332 216.12128 283.90898 243.3799 283.90898 243.3799C283.90898 243.3799 273.42489 229.54091 273.42489 229.54091C273.42489 229.54091 272.58616 127.21625 272.58616 127.21625C272.58616 127.21625 283.07024 114.63536 283.07024 114.63536"
     id="path822" />
  <path
     style="stroke-linejoin:miter;stroke-opacity:1;stroke:none;stroke-linecap:butt;stroke-width:1.32582521472;fill:#ffffff"
     d="M403.42752 126.79689C403.42752 126.79689 382.87872 151.95869 382.87872 151.95869C382.87872 151.95869 382.04 219.05683 382.04 219.05683C382.04 219.05683 401.75007 245.89608 401.75007 245.89608C401.75007 245.89608 412.23415 234.1539 412.23415 234.1539C412.23415 234.1539 413.49224 139.37779 413.49224 139.37779C413.49224 139.37779 403.42752 126.79689 403.42752 126.79689"
     id="path824" />
  <path
     style="stroke-linejoin:miter;stroke-opacity:1;stroke:none;stroke-linecap:butt;stroke-width:1.32582521472;fill:#ffffff"
     d="M300.98267 95.187626C300.98267 95.187626 388.4604 105.2698 388.4604 105.2698C388.4604 105.2698 397.9495 118.02079 397.9495 118.02079C397.9495 118.02079 376.89554 143.8193 376.89554 143.8193C376.89554 143.8193 313.73367 138.18514 313.73367 138.18514C313.73367 138.18514 290.30743 106.1594 290.30743 106.1594C290.30743 106.1594 300.98267 95.187626 300.98267 95.187626"
     id="path826" />
  <path
     style="stroke-linejoin:miter;stroke-opacity:1;stroke:none;stroke-linecap:butt;stroke-width:1.32582521472;fill:#ffffff"
     d="M97.856435 256.20594C97.856435 256.20594 126.32376 287.04554 126.32376 287.04554C126.32376 287.04554 127.5099 367.1099 127.5099 367.1099C127.5099 367.1099 99.042579 400.32178 99.042579 400.32178C99.042579 400.32178 85.99505 384.90198 85.99505 384.90198C85.99505 384.90198 85.401981 271.03268 85.401981 271.03268C85.401981 271.03268 97.856435 256.20594 97.856435 256.20594"
     id="path852" />
  <path
     style="stroke-linejoin:miter;stroke-opacity:1;stroke:none;stroke-linecap:butt;stroke-width:1.32582521472;fill:#ffffff"
     d="M134.62673 374.8198C134.62673 374.8198 211.72575 370.07525 211.72575 370.07525C211.72575 370.07525 236.04159 399.72871 236.04159 399.72871C236.04159 399.72871 224.77327 413.96238 224.77327 413.96238C224.77327 413.96238 120.98613 421.67228 120.98613 421.67228C120.98613 421.67228 106.75248 408.62475 106.75248 408.62475C106.75248 408.62475 134.62673 374.8198 134.62673 374.8198"
     id="path854" />
  <path
     style="stroke-linejoin:miter;stroke-opacity:1;stroke:none;stroke-linecap:butt;stroke-width:1.32582521472;fill:#ffffff"
     d="M283.48713 260.35742C283.48713 260.35742 307.2099 287.63862 307.2099 287.63862C307.2099 287.63862 306.61683 358.80693 306.61683 358.80693C306.61683 358.80693 282.89406 388.4604 282.89406 388.4604C282.89406 388.4604 272.21881 375.41288 272.21881 375.41288C272.21881 375.41288 273.40495 272.81188 273.40495 272.81188C273.40495 272.81188 283.48713 260.35742 283.48713 260.35742"
     id="path856" />
  <path
     style="stroke-linejoin:miter;stroke-opacity:1;stroke:none;stroke-linecap:butt;stroke-width:1.32582521472;fill:#ffffff"
     d="M312.54753 365.92376C312.54753 365.92376 375.41288 361.77228 375.41288 361.77228C375.41288 361.77228 395.57723 389.05346 395.57723 389.05346C395.57723 389.05346 386.68119 400.91485 386.68119 400.91485C386.68119 400.91485 300.68614 408.62475 300.68614 408.62475C300.68614 408.62475 290.60397 394.98416 290.60397 394.98416C290.60397 394.98416 312.54753 365.92376 312.54753 365.92376"
     id="path858" />
  <path
     style="stroke-linejoin:miter;stroke-opacity:1;stroke:none;stroke-linecap:butt;stroke-width:1.32582521472;fill:#ffffff"
     d="M381.34357 354.65545C381.34357 354.65545 401.50793 380.7505 401.50793 380.7505C401.50793 380.7505 411.5901 367.70297 411.5901 367.70297C411.5901 367.70297 411.5901 273.40495 411.5901 273.40495C411.5901 273.40495 402.69406 261.54357 402.69406 261.54357C402.69406 261.54357 381.34357 288.23169 381.34357 288.23169C381.34357 288.23169 381.34357 354.65545 381.34357 354.65545"
     id="path860" />
  <path
     id="path5130"
     d="m 24.908916,10.675247 4.74455,4.744555 381.936634,52.190099 z"
     style="fill:url(#linearGradient5138);stroke:none;stroke-width:0.9375px;stroke-linecap:butt;stroke-linejoin:miter;stroke-opacity:1;fill-opacity:1" />
  <path
     id="path5140"
     d="m 441.44708,69.634767 0,452.961053 -420.689655,68.10121 6.22723,-3.55841 411.611185,-69.98218 2.02485,-442.705167 z"
     style="fill:#00284f;fill-opacity:1;stroke:none;stroke-width:0.9375px;stroke-linecap:butt;stroke-linejoin:miter;stroke-opacity:1" />
</svg>
