<svg xmlns="http://www.w3.org/2000/svg" width="27.253" height="27.253" viewBox="0 0 27.253 27.253"><defs><style>.a{fill:#fff;fill-rule:evenodd;}</style></defs><path class="a" d="M13.626,2.422a41.781,41.781,0,0,1,5.451.151,7.022,7.022,0,0,1,2.574.454A5.317,5.317,0,0,1,24.225,5.6a7.022,7.022,0,0,1,.454,2.574c0,1.363.151,1.817.151,5.451a41.781,41.781,0,0,1-.151,5.451,7.022,7.022,0,0,1-.454,2.574,5.317,5.317,0,0,1-2.574,2.574,7.022,7.022,0,0,1-2.574.454c-1.363,0-1.817.151-5.451.151a41.781,41.781,0,0,1-5.451-.151A7.022,7.022,0,0,1,5.6,24.225a5.317,5.317,0,0,1-2.574-2.574,7.022,7.022,0,0,1-.454-2.574c0-1.363-.151-1.817-.151-5.451a41.781,41.781,0,0,1,.151-5.451A7.022,7.022,0,0,1,3.028,5.6a5.438,5.438,0,0,1,1.06-1.514A2.56,2.56,0,0,1,5.6,3.028a7.022,7.022,0,0,1,2.574-.454,41.781,41.781,0,0,1,5.451-.151m0-2.422a44.735,44.735,0,0,0-5.6.151A9.347,9.347,0,0,0,4.694.757,5.927,5.927,0,0,0,2.271,2.271,5.927,5.927,0,0,0,.757,4.694,6.9,6.9,0,0,0,.151,8.024,44.735,44.735,0,0,0,0,13.626a44.735,44.735,0,0,0,.151,5.6,9.347,9.347,0,0,0,.606,3.331,5.927,5.927,0,0,0,1.514,2.422A5.927,5.927,0,0,0,4.694,26.5a9.347,9.347,0,0,0,3.331.606,44.735,44.735,0,0,0,5.6.151,44.735,44.735,0,0,0,5.6-.151,9.347,9.347,0,0,0,3.331-.606A6.352,6.352,0,0,0,26.5,22.559a9.347,9.347,0,0,0,.606-3.331c0-1.514.151-1.968.151-5.6a44.735,44.735,0,0,0-.151-5.6A9.347,9.347,0,0,0,26.5,4.694a5.927,5.927,0,0,0-1.514-2.422A5.927,5.927,0,0,0,22.559.757,9.347,9.347,0,0,0,19.228.151,44.735,44.735,0,0,0,13.626,0m0,6.662a6.852,6.852,0,0,0-6.965,6.965,6.965,6.965,0,1,0,6.965-6.965m0,11.507a4.461,4.461,0,0,1-4.542-4.542,4.461,4.461,0,0,1,4.542-4.542,4.461,4.461,0,0,1,4.542,4.542,4.461,4.461,0,0,1-4.542,4.542M20.894,4.694a1.665,1.665,0,1,0,1.665,1.665,1.68,1.68,0,0,0-1.665-1.665"/></svg>