<svg width="80" height="30" viewBox="0 0 80 30" fill="none" xmlns="http://www.w3.org/2000/svg">
    <path d="M24.9838 9.2C25.0745 9.37067 25.1571 9.54933 25.2318 9.736C25.3118 9.91733 25.3891 10.1013 25.4638 10.288C25.5385 10.096 25.6158 9.90667 25.6958 9.72C25.7758 9.53333 25.8611 9.35467 25.9518 9.184L29.3758 2.776C29.4185 2.696 29.4611 2.632 29.5038 2.584C29.5518 2.536 29.6025 2.50133 29.6558 2.48C29.7145 2.45867 29.7785 2.44533 29.8478 2.44C29.9171 2.43467 29.9998 2.432 30.0958 2.432H31.7198V14H29.8238V6.528C29.8238 6.38933 29.8265 6.23733 29.8318 6.072C29.8425 5.90667 29.8558 5.73867 29.8718 5.568L26.3758 12.128C26.2958 12.2773 26.1918 12.3947 26.0638 12.48C25.9358 12.56 25.7865 12.6 25.6158 12.6H25.3198C25.1491 12.6 24.9998 12.56 24.8718 12.48C24.7438 12.3947 24.6398 12.2773 24.5598 12.128L21.0158 5.544C21.0371 5.72 21.0505 5.89333 21.0558 6.064C21.0665 6.22933 21.0718 6.384 21.0718 6.528V14H19.1758V2.432H20.7998C20.8958 2.432 20.9785 2.43467 21.0478 2.44C21.1171 2.44533 21.1785 2.45867 21.2318 2.48C21.2905 2.50133 21.3438 2.536 21.3918 2.584C21.4398 2.632 21.4851 2.696 21.5278 2.776L24.9838 9.2ZM47.3126 14H45.6486C45.4619 14 45.3072 13.9547 45.1846 13.864C45.0672 13.768 44.9819 13.6507 44.9286 13.512L44.0646 11.152H39.2726L38.4086 13.512C38.3659 13.6347 38.2806 13.7467 38.1526 13.848C38.0299 13.9493 37.8779 14 37.6966 14H36.0246L40.5686 2.432H42.7686L47.3126 14ZM39.8246 9.632H43.5126L42.1046 5.784C42.0406 5.61333 41.9686 5.41333 41.8886 5.184C41.8139 4.94933 41.7392 4.696 41.6646 4.424C41.5899 4.696 41.5152 4.94933 41.4406 5.184C41.3712 5.41867 41.3019 5.624 41.2326 5.8L39.8246 9.632ZM56.9097 12.416C57.395 12.416 57.8164 12.3733 58.1737 12.288C58.5364 12.1973 58.8804 12.0747 59.2057 11.92V9.816H57.7577C57.619 9.816 57.5097 9.77867 57.4297 9.704C57.3497 9.624 57.3097 9.528 57.3097 9.416V8.2H61.1577V12.88C60.8644 13.0933 60.5577 13.28 60.2377 13.44C59.923 13.5947 59.5844 13.7227 59.2217 13.824C58.8644 13.9253 58.4804 14 58.0697 14.048C57.659 14.1013 57.2164 14.128 56.7417 14.128C55.899 14.128 55.123 13.9813 54.4137 13.688C53.7044 13.3947 53.091 12.9867 52.5737 12.464C52.0564 11.9413 51.651 11.3173 51.3577 10.592C51.0697 9.86667 50.9257 9.07467 50.9257 8.216C50.9257 7.34667 51.067 6.54933 51.3497 5.824C51.6324 5.09867 52.0324 4.47467 52.5497 3.952C53.0724 3.42933 53.7044 3.024 54.4457 2.736C55.187 2.448 56.019 2.304 56.9417 2.304C57.8857 2.304 58.7017 2.44533 59.3897 2.728C60.083 3.00533 60.6697 3.368 61.1497 3.816L60.5257 4.792C60.403 4.98933 60.2404 5.088 60.0377 5.088C59.9097 5.088 59.779 5.04533 59.6457 4.96C59.475 4.85867 59.299 4.75733 59.1177 4.656C58.9417 4.55467 58.7444 4.46667 58.5257 4.392C58.3124 4.31733 58.0697 4.256 57.7977 4.208C57.531 4.16 57.2217 4.136 56.8697 4.136C56.299 4.136 55.7817 4.232 55.3177 4.424C54.859 4.616 54.467 4.89067 54.1417 5.248C53.8164 5.60533 53.5657 6.03467 53.3897 6.536C53.2137 7.03733 53.1257 7.59733 53.1257 8.216C53.1257 8.88267 53.219 9.47733 53.4057 10C53.5924 10.5173 53.8537 10.9547 54.1897 11.312C54.5257 11.6693 54.9257 11.944 55.3897 12.136C55.8537 12.3227 56.3604 12.416 56.9097 12.416ZM23.9838 24.2C24.0745 24.3707 24.1571 24.5493 24.2318 24.736C24.3118 24.9173 24.3891 25.1013 24.4638 25.288C24.5385 25.096 24.6158 24.9067 24.6958 24.72C24.7758 24.5333 24.8611 24.3547 24.9518 24.184L28.3758 17.776C28.4185 17.696 28.4611 17.632 28.5038 17.584C28.5518 17.536 28.6025 17.5013 28.6558 17.48C28.7145 17.4587 28.7785 17.4453 28.8478 17.44C28.9171 17.4347 28.9998 17.432 29.0958 17.432H30.7198V29H28.8238V21.528C28.8238 21.3893 28.8265 21.2373 28.8318 21.072C28.8425 20.9067 28.8558 20.7387 28.8718 20.568L25.3758 27.128C25.2958 27.2773 25.1918 27.3947 25.0638 27.48C24.9358 27.56 24.7865 27.6 24.6158 27.6H24.3198C24.1491 27.6 23.9998 27.56 23.8718 27.48C23.7438 27.3947 23.6398 27.2773 23.5598 27.128L20.0158 20.544C20.0371 20.72 20.0505 20.8933 20.0558 21.064C20.0665 21.2293 20.0718 21.384 20.0718 21.528V29H18.1758V17.432H19.7998C19.8958 17.432 19.9785 17.4347 20.0478 17.44C20.1171 17.4453 20.1785 17.4587 20.2318 17.48C20.2905 17.5013 20.3438 17.536 20.3918 17.584C20.4398 17.632 20.4851 17.696 20.5278 17.776L23.9838 24.2ZM43.2188 29H41.5548C41.3681 29 41.2135 28.9547 41.0908 28.864C40.9735 28.768 40.8881 28.6507 40.8348 28.512L39.9708 26.152H35.1788L34.3148 28.512C34.2721 28.6347 34.1868 28.7467 34.0588 28.848C33.9361 28.9493 33.7841 29 33.6028 29H31.9308L36.4748 17.432H38.6748L43.2188 29ZM35.7308 24.632H39.4188L38.0108 20.784C37.9468 20.6133 37.8748 20.4133 37.7948 20.184C37.7201 19.9493 37.6455 19.696 37.5708 19.424C37.4961 19.696 37.4215 19.9493 37.3468 20.184C37.2775 20.4187 37.2081 20.624 37.1388 20.8L35.7308 24.632ZM50.6102 19.536C50.5515 19.6533 50.4822 19.736 50.4022 19.784C50.3275 19.832 50.2369 19.856 50.1302 19.856C50.0235 19.856 49.9035 19.816 49.7702 19.736C49.6369 19.6507 49.4795 19.5573 49.2982 19.456C49.1169 19.3547 48.9035 19.264 48.6582 19.184C48.4182 19.0987 48.1329 19.056 47.8022 19.056C47.5035 19.056 47.2422 19.0933 47.0182 19.168C46.7995 19.2373 46.6129 19.336 46.4582 19.464C46.3089 19.592 46.1969 19.7467 46.1222 19.928C46.0475 20.104 46.0102 20.2987 46.0102 20.512C46.0102 20.784 46.0849 21.0107 46.2342 21.192C46.3889 21.3733 46.5915 21.528 46.8422 21.656C47.0929 21.784 47.3782 21.8987 47.6982 22C48.0182 22.1013 48.3435 22.2107 48.6742 22.328C49.0102 22.44 49.3382 22.5733 49.6582 22.728C49.9782 22.8773 50.2635 23.0693 50.5142 23.304C50.7649 23.5333 50.9649 23.816 51.1142 24.152C51.2689 24.488 51.3462 24.896 51.3462 25.376C51.3462 25.8987 51.2555 26.3893 51.0742 26.848C50.8982 27.3013 50.6369 27.6987 50.2902 28.04C49.9489 28.376 49.5302 28.6427 49.0342 28.84C48.5382 29.032 47.9702 29.128 47.3302 29.128C46.9622 29.128 46.5995 29.0907 46.2422 29.016C45.8849 28.9467 45.5409 28.8453 45.2102 28.712C44.8849 28.5787 44.5782 28.4187 44.2902 28.232C44.0075 28.0453 43.7542 27.8373 43.5302 27.608L44.1542 26.576C44.2129 26.5013 44.2822 26.44 44.3622 26.392C44.4475 26.3387 44.5409 26.312 44.6422 26.312C44.7755 26.312 44.9195 26.368 45.0742 26.48C45.2289 26.5867 45.4102 26.7067 45.6182 26.84C45.8315 26.9733 46.0795 27.096 46.3622 27.208C46.6502 27.3147 46.9942 27.368 47.3942 27.368C48.0075 27.368 48.4822 27.224 48.8182 26.936C49.1542 26.6427 49.3222 26.224 49.3222 25.68C49.3222 25.376 49.2449 25.128 49.0902 24.936C48.9409 24.744 48.7409 24.584 48.4902 24.456C48.2395 24.3227 47.9542 24.2107 47.6342 24.12C47.3142 24.0293 46.9889 23.9307 46.6582 23.824C46.3275 23.7173 46.0022 23.5893 45.6822 23.44C45.3622 23.2907 45.0769 23.096 44.8262 22.856C44.5755 22.616 44.3729 22.3173 44.2182 21.96C44.0689 21.5973 43.9942 21.152 43.9942 20.624C43.9942 20.2027 44.0769 19.792 44.2422 19.392C44.4129 18.992 44.6582 18.6373 44.9782 18.328C45.3035 18.0187 45.7009 17.7707 46.1702 17.584C46.6395 17.3973 47.1755 17.304 47.7782 17.304C48.4609 17.304 49.0902 17.4107 49.6662 17.624C50.2422 17.8373 50.7329 18.136 51.1382 18.52L50.6102 19.536ZM55.2123 22.28H55.7163C55.919 22.28 56.087 22.2533 56.2203 22.2C56.3536 22.1413 56.4683 22.0507 56.5643 21.928L59.7563 17.888C59.8896 17.7173 60.0283 17.6 60.1723 17.536C60.3216 17.4667 60.5083 17.432 60.7323 17.432H62.5883L58.6923 22.24C58.5696 22.3893 58.4523 22.5147 58.3403 22.616C58.2283 22.7173 58.1083 22.8 57.9803 22.864C58.1563 22.928 58.3136 23.0187 58.4523 23.136C58.5963 23.2533 58.735 23.4027 58.8683 23.584L62.8843 29H60.9803C60.7243 29 60.5323 28.9653 60.4043 28.896C60.2816 28.8213 60.1776 28.7147 60.0923 28.576L56.8203 24.304C56.7136 24.1653 56.5936 24.0667 56.4603 24.008C56.327 23.944 56.1376 23.912 55.8923 23.912H55.2123V29H53.0603V17.424H55.2123V22.28Z" fill="white"/>
    <path d="M80 16.6878L75.173 11L77.7221 15.8019L75 17.2173L78.8324 22L77.3604 17.7223L80 16.6878Z" fill="white"/>
    <path d="M-4.05518e-08 16.6878L4.82702 11L2.27792 15.8019L5 17.2173L1.16758 22L2.63962 17.7223L-4.05518e-08 16.6878Z" fill="white"/>
    <line x1="5.77639" y1="12.5528" x2="17.7764" y2="6.55279" stroke="white"/>
    <line y1="-0.5" x2="13.4164" y2="-0.5" transform="matrix(-0.894427 -0.447214 -0.447214 0.894427 74 13)" stroke="white"/>
    <line x1="6.28673" y1="18.5904" x2="16.2867" y2="25.5904" stroke="white"/>
    <line y1="-0.5" x2="12.2066" y2="-0.5" transform="matrix(-0.819232 0.573462 0.573462 0.819232 74 19)" stroke="white"/>
</svg>
